<svg width="153" height="100" viewBox="0 0 153 100" fill="none" xmlns="http://www.w3.org/2000/svg">
<path d="M140.433 99.9521C133.32 99.9521 129.102 96.4109 128.779 91.3103H135.58C135.58 93.0105 136.548 95.2738 140.756 95.4146C143.672 95.4146 145.286 93.7144 145.286 92.4365C144.963 90.4547 142.369 90.3139 139.787 89.8808C136.871 89.4692 134.612 88.8953 132.987 88.1914C130.727 87.0543 129.425 84.6393 129.425 82.0944C129.425 77.5569 133.32 74.0156 140.11 74.0156C146.588 74.0156 150.795 77.2753 151.107 82.2352H144.64C144.64 80.9681 144.317 78.8347 140.433 78.8347C137.839 78.8347 136.226 79.2571 135.903 81.0981C135.903 83.6538 141.401 83.513 145.608 84.4985C149.493 85.4948 152.086 87.899 152.086 91.3103C152.086 97.548 146.911 99.9521 140.433 99.9521" fill="#B8B8B8"/>
<path d="M16.5088 58.1046L38.8363 45.4883L50.8126 65.4795H20.7161" fill="#B8B8B8"/>
<path d="M6.14396 86.9604C6.14396 90.9239 9.70568 94.1836 13.5791 94.1836C17.7975 94.1836 21.0253 90.9239 21.0253 86.9604C21.0253 83.1376 17.7975 79.7371 13.5791 79.7371C9.70568 79.7371 6.14396 83.1376 6.14396 86.9604V86.9604ZM13.2563 99.999C6.14396 99.999 0 94.1836 0 86.9604C0 79.7371 6.14396 74.0625 13.2563 74.0625C16.1724 74.0625 18.7658 74.7772 21.0253 76.3258V74.3441H27.5031V99.4251H21.0253V97.8656C19.0886 99.2843 16.1724 99.999 13.2563 99.999" fill="#B8B8B8"/>
<path d="M99.6769 65.4746L68.6123 12.7573L90.9397 0.000258362L129.773 65.4746" fill="#B8B8B8"/>
<path d="M35.9164 86.9623C35.9164 90.9259 39.1554 94.1856 43.3626 94.1856C47.236 94.1856 50.8089 90.9259 50.8089 86.9623C50.8089 83.1395 47.236 79.7391 43.3626 79.7391C39.1554 79.7391 35.9164 83.1395 35.9164 86.9623ZM43.0399 100.001C35.5936 100.001 29.7725 94.1856 29.7725 86.9623C29.7725 79.7391 35.5936 74.0644 43.0399 74.0644C45.9449 74.0644 48.5383 74.7792 50.8089 76.3278V65.7041H57.2756V99.427H50.8089V97.8676C48.5383 99.2862 45.9449 100.001 43.0399 100.001" fill="#B8B8B8"/>
<path d="M42.7227 35.5724L65.373 23.1077L90.2939 65.4725H66.9556L66.9556 71.7383L60.1973 71.7103V65.4725" fill="#B8B8B8"/>
<path d="M60.2598 74.6074H66.9553V99.4765H60.2598V74.6074Z" fill="#B8B8B8"/>
<path d="M147.89 71.9092C146.265 71.9092 144.651 70.4905 144.651 68.7903C144.651 67.0901 146.265 65.6714 147.89 65.6714C149.827 65.6714 151.129 67.0901 151.129 68.7903C151.129 70.4905 149.827 71.9092 147.89 71.9092ZM147.89 66.1046C146.265 66.1046 145.297 67.3716 145.297 68.7903C145.297 70.209 146.265 71.4868 147.89 71.4868C149.504 71.4868 150.473 70.209 150.473 68.7903C150.473 67.3716 149.504 66.1046 147.89 66.1046Z" fill="#B8B8B8"/>
<path d="M148.557 70.501L147.912 69.0823H147.266V70.501H146.776V67.1005H148.234C148.557 67.1005 149.203 67.5337 149.203 68.0968C149.203 68.66 148.88 68.9415 148.557 69.0823L149.203 70.501H148.557ZM147.912 67.5337H147.266V68.66H147.912C148.557 68.66 148.557 68.5192 148.557 68.0968C148.557 67.8044 148.557 67.5337 147.912 67.5337" fill="#B8B8B8"/>
<path d="M105.148 86.9623C105.148 90.9259 108.387 94.1856 112.594 94.1856C116.479 94.1856 120.029 90.9259 120.029 86.9623C120.029 83.1395 116.479 79.7391 112.594 79.7391C108.387 79.7391 105.148 83.1395 105.148 86.9623V86.9623ZM112.26 100.001C104.825 100.001 99.0039 94.1856 99.0039 86.9623C99.0039 79.7391 104.825 74.0644 112.26 74.0644C115.176 74.0644 117.77 74.7792 120.029 76.3278V74.346H126.184V99.427H120.029V97.8676C117.77 99.2862 115.176 100.001 112.26 100.001" fill="#B8B8B8"/>
<path d="M75.3969 86.9623C75.3969 90.9259 78.9586 94.1856 82.8431 94.1856C87.0504 94.1856 90.2893 90.9259 90.2893 86.9623C90.2893 83.1395 87.0504 79.7391 82.8431 79.7391C78.9586 79.7391 75.3969 83.1395 75.3969 86.9623ZM90.2893 65.7041H96.7561V99.427H90.2893V97.8676C88.3415 99.2862 85.7481 100.001 82.8431 100.001C75.3969 100.001 69.2529 94.1856 69.2529 86.9623C69.2529 79.7391 75.3969 74.0644 82.8431 74.0644C85.7481 74.0644 88.3415 74.7792 90.2893 76.3278V65.7041Z" fill="#B8B8B8"/>
</svg>
