<svg width="174" height="100" viewBox="0 0 174 100" fill="none" xmlns="http://www.w3.org/2000/svg">
<path d="M61.3629 0L58.3326 5.30303L86.3629 6.81818L84.8478 0.378788L61.3629 0Z" fill="#B8B8B8"/>
<path d="M50.3781 19.3182L53.0296 14.3939L87.4993 12.1212L90.1508 21.5909L50.3781 19.3182Z" fill="#B8B8B8"/>
<path d="M36.7417 42.4242L67.0447 40.5303L62.1205 49.2424L34.0902 47.3485L36.7417 42.4242Z" fill="#B8B8B8"/>
<path d="M28.7871 56.8182L25.7568 61.7424H54.9235L59.0902 54.5455L28.7871 56.8182Z" fill="#B8B8B8"/>
<path fill-rule="evenodd" clip-rule="evenodd" d="M98.4841 7.57576L103.03 0.378788H142.045C142.045 0.378788 155.681 1.51515 153.03 13.6364C153.03 13.6364 151.514 25.3788 135.227 30.6818C135.227 30.6818 145.075 32.197 142.802 43.1818C142.802 43.1818 138.636 59.4697 115.53 61.7424H73.1053L71.2114 53.7879L92.0447 52.6515L92.8023 51.1364L70.075 49.6212L67.8023 40.5303L100.378 38.6364L101.136 37.1212L42.0447 33.3333L45.075 28.4091L108.333 24.2424L109.09 23.1061L90.5296 21.9697L96.5902 11.7424L116.287 10.2273L117.045 8.71212L98.4841 7.57576ZM117.045 23.8636L123.484 12.1212H130.302C133.711 13.6364 132.575 18.1818 132.575 18.1818C131.06 22.3485 124.999 23.8636 124.999 23.8636H117.045ZM110.227 35.6061L103.408 47.7273H112.12C120.454 46.2121 120.833 40.1515 120.833 40.1515C121.211 36.7424 117.802 35.6061 117.802 35.6061H110.227Z" fill="#B8B8B8"/>
<path d="M5.92614 84.0806V92.9102H1.69034V77.6374H5.72727V80.332H5.90625C6.24432 79.4438 6.81108 78.7411 7.60653 78.2241C8.40199 77.7004 9.36648 77.4386 10.5 77.4386C11.5606 77.4386 12.4853 77.6706 13.2741 78.1346C14.063 78.5986 14.6761 79.2615 15.1136 80.1232C15.5511 80.9783 15.7699 81.9992 15.7699 83.1857V92.9102H11.5341V83.9414C11.5407 83.0067 11.3021 82.2776 10.8182 81.7539C10.3343 81.2236 9.66809 80.9585 8.8196 80.9585C8.24953 80.9585 7.74574 81.0811 7.30824 81.3263C6.87737 81.5716 6.5393 81.9296 6.29403 82.4002C6.0554 82.8642 5.93277 83.4244 5.92614 84.0806ZM26.0685 93.2085C24.4975 93.2085 23.1452 92.8903 22.0117 92.2539C20.8848 91.6109 20.0165 90.7028 19.4066 89.5295C18.7968 88.3495 18.4918 86.9542 18.4918 85.3434C18.4918 83.7724 18.7968 82.3936 19.4066 81.207C20.0165 80.0205 20.8749 79.0958 21.9819 78.4329C23.0955 77.77 24.4014 77.4386 25.8995 77.4386C26.9071 77.4386 27.8451 77.601 28.7134 77.9258C29.5884 78.244 30.3507 78.7245 31.0004 79.3675C31.6566 80.0105 32.167 80.8192 32.5316 81.7937C32.8962 82.7615 33.0785 83.895 33.0785 85.1942V86.3576H20.1822V83.7326H29.0913C29.0913 83.1228 28.9587 82.5825 28.6935 82.1119C28.4284 81.6412 28.0605 81.2733 27.5898 81.0082C27.1258 80.7364 26.5856 80.6005 25.9691 80.6005C25.3261 80.6005 24.756 80.7496 24.2589 81.0479C23.7683 81.3396 23.3839 81.734 23.1055 82.2312C22.8271 82.7217 22.6845 83.2686 22.6779 83.8718V86.3675C22.6779 87.1232 22.8171 87.7762 23.0955 88.3263C23.3806 88.8765 23.7816 89.3008 24.2987 89.5991C24.8157 89.8974 25.4289 90.0465 26.1381 90.0465C26.6088 90.0465 27.0397 89.9802 27.4308 89.8477C27.8219 89.7151 28.1566 89.5162 28.435 89.2511C28.7134 88.9859 28.9255 88.6611 29.0714 88.2766L32.989 88.5352C32.7901 89.4764 32.3825 90.2984 31.766 91.0011C31.1561 91.6971 30.3673 92.2406 29.3995 92.6317C28.4383 93.0162 27.328 93.2085 26.0685 93.2085ZM38.7461 92.9102L34.5898 77.6374H38.8754L41.2418 87.8988H41.381L43.8469 77.6374H48.0529L50.5586 87.8391H50.6879L53.0146 77.6374H57.2901L53.1438 92.9102H48.6594L46.0344 83.305H45.8455L43.2205 92.9102H38.7461ZM66.1097 92.9102V72.5465H70.3455V80.2028H70.4748C70.6604 79.7918 70.9289 79.3742 71.2802 78.9499C71.6381 78.5191 72.1022 78.1611 72.6722 77.8761C73.2489 77.5844 73.9648 77.4386 74.82 77.4386C75.9336 77.4386 76.9611 77.7302 77.9023 78.3136C78.8436 78.8903 79.596 79.762 80.1594 80.9286C80.7229 82.0887 81.0046 83.5437 81.0046 85.2937C81.0046 86.9973 80.7295 88.4357 80.1793 89.609C79.6358 90.7757 78.8933 91.6606 77.9521 92.2638C77.0174 92.8604 75.9701 93.1587 74.81 93.1587C73.988 93.1587 73.2887 93.0228 72.712 92.7511C72.1419 92.4793 71.6746 92.1379 71.31 91.7269C70.9454 91.3093 70.667 90.8884 70.4748 90.4641H70.2859V92.9102H66.1097ZM70.256 85.2738C70.256 86.1819 70.382 86.9741 70.6339 87.6502C70.8858 88.3263 71.2504 88.8533 71.7276 89.2312C72.2049 89.6024 72.7849 89.788 73.4677 89.788C74.1571 89.788 74.7404 89.5991 75.2177 89.2212C75.695 88.8368 76.0562 88.3065 76.3015 87.6303C76.5534 86.9476 76.6793 86.1621 76.6793 85.2738C76.6793 84.3922 76.5567 83.6166 76.3114 82.9471C76.0662 82.2776 75.7049 81.7539 75.2276 81.3761C74.7504 80.9982 74.1637 80.8093 73.4677 80.8093C72.7783 80.8093 72.195 80.9916 71.7177 81.3562C71.247 81.7208 70.8858 82.2378 70.6339 82.9073C70.382 83.5768 70.256 84.3656 70.256 85.2738ZM88.1861 93.1985C87.2116 93.1985 86.3433 93.0295 85.581 92.6914C84.8187 92.3467 84.2154 91.8396 83.7713 91.1701C83.3338 90.494 83.1151 89.6521 83.1151 88.6445C83.1151 87.796 83.2708 87.0835 83.5824 86.5067C83.8939 85.93 84.3182 85.466 84.8551 85.1147C85.392 84.7634 86.0019 84.4982 86.6847 84.3192C87.3741 84.1403 88.0966 84.0143 88.8523 83.9414C89.7405 83.8486 90.4564 83.7624 91 83.6829C91.5436 83.5967 91.938 83.4708 92.1832 83.305C92.4285 83.1393 92.5511 82.8941 92.5511 82.5692V82.5096C92.5511 81.8799 92.3523 81.3926 91.9545 81.0479C91.5634 80.7032 91.0066 80.5309 90.2841 80.5309C89.5218 80.5309 88.9152 80.6999 88.4645 81.038C88.0137 81.3694 87.7154 81.7871 87.5696 82.2908L83.652 81.9727C83.8509 81.0446 84.242 80.2425 84.8253 79.5664C85.4086 78.8836 86.161 78.36 87.0824 77.9954C88.0104 77.6242 89.0843 77.4386 90.304 77.4386C91.1525 77.4386 91.9645 77.538 92.7401 77.7369C93.5223 77.9357 94.215 78.244 94.8182 78.6616C95.428 79.0792 95.9086 79.6161 96.2599 80.2724C96.6113 80.922 96.7869 81.7009 96.7869 82.609V92.9102H92.7699V90.7923H92.6506C92.4053 91.2695 92.0772 91.6905 91.6662 92.055C91.2552 92.413 90.7614 92.6947 90.1847 92.9002C89.608 93.0991 88.9418 93.1985 88.1861 93.1985ZM89.3991 90.2752C90.0223 90.2752 90.5724 90.1526 91.0497 89.9073C91.527 89.6554 91.9015 89.3174 92.1733 88.8931C92.4451 88.4689 92.581 87.9883 92.581 87.4513V85.8306C92.4484 85.9168 92.2661 85.9963 92.0341 86.0692C91.8087 86.1355 91.5535 86.1985 91.2685 86.2582C90.9834 86.3112 90.6984 86.3609 90.4134 86.4073C90.1283 86.4471 89.8698 86.4835 89.6378 86.5167C89.1406 86.5896 88.7064 86.7056 88.3352 86.8647C87.964 87.0238 87.6757 87.2392 87.4702 87.511C87.2647 87.7762 87.1619 88.1076 87.1619 88.5053C87.1619 89.082 87.3707 89.5228 87.7884 89.8278C88.2126 90.1261 88.7495 90.2752 89.3991 90.2752ZM104.309 72.5465V92.9102H100.073V72.5465H104.309ZM112.057 93.1985C111.083 93.1985 110.214 93.0295 109.452 92.6914C108.69 92.3467 108.087 91.8396 107.642 91.1701C107.205 90.494 106.986 89.6521 106.986 88.6445C106.986 87.796 107.142 87.0835 107.453 86.5067C107.765 85.93 108.189 85.466 108.726 85.1147C109.263 84.7634 109.873 84.4982 110.556 84.3192C111.245 84.1403 111.968 84.0143 112.723 83.9414C113.612 83.8486 114.328 83.7624 114.871 83.6829C115.415 83.5967 115.809 83.4708 116.054 83.305C116.3 83.1393 116.422 82.8941 116.422 82.5692V82.5096C116.422 81.8799 116.223 81.3926 115.826 81.0479C115.435 80.7032 114.878 80.5309 114.155 80.5309C113.393 80.5309 112.786 80.6999 112.336 81.038C111.885 81.3694 111.587 81.7871 111.441 82.2908L107.523 81.9727C107.722 81.0446 108.113 80.2425 108.696 79.5664C109.28 78.8836 110.032 78.36 110.953 77.9954C111.882 77.6242 112.955 77.4386 114.175 77.4386C115.024 77.4386 115.836 77.538 116.611 77.7369C117.393 77.9357 118.086 78.244 118.689 78.6616C119.299 79.0792 119.78 79.6161 120.131 80.2724C120.482 80.922 120.658 81.7009 120.658 82.609V92.9102H116.641V90.7923H116.522C116.276 91.2695 115.948 91.6905 115.537 92.055C115.126 92.413 114.632 92.6947 114.056 92.9002C113.479 93.0991 112.813 93.1985 112.057 93.1985ZM113.27 90.2752C113.893 90.2752 114.444 90.1526 114.921 89.9073C115.398 89.6554 115.773 89.3174 116.044 88.8931C116.316 88.4689 116.452 87.9883 116.452 87.4513V85.8306C116.319 85.9168 116.137 85.9963 115.905 86.0692C115.68 86.1355 115.425 86.1985 115.14 86.2582C114.855 86.3112 114.569 86.3609 114.284 86.4073C113.999 86.4471 113.741 86.4835 113.509 86.5167C113.012 86.5896 112.578 86.7056 112.206 86.8647C111.835 87.0238 111.547 87.2392 111.341 87.511C111.136 87.7762 111.033 88.1076 111.033 88.5053C111.033 89.082 111.242 89.5228 111.659 89.8278C112.084 90.1261 112.621 90.2752 113.27 90.2752ZM128.18 84.0806V92.9102H123.944V77.6374H127.981V80.332H128.16C128.498 79.4438 129.065 78.7411 129.86 78.2241C130.656 77.7004 131.62 77.4386 132.754 77.4386C133.815 77.4386 134.739 77.6706 135.528 78.1346C136.317 78.5986 136.93 79.2615 137.368 80.1232C137.805 80.9783 138.024 81.9992 138.024 83.1857V92.9102H133.788V83.9414C133.795 83.0067 133.556 82.2776 133.072 81.7539C132.588 81.2236 131.922 80.9585 131.074 80.9585C130.503 80.9585 130 81.0811 129.562 81.3263C129.131 81.5716 128.793 81.9296 128.548 82.4002C128.309 82.8642 128.187 83.4244 128.18 84.0806ZM148.263 93.2085C146.698 93.2085 145.353 92.877 144.226 92.2141C143.106 91.5446 142.244 90.6166 141.641 89.43C141.044 88.2435 140.746 86.878 140.746 85.3335C140.746 83.7691 141.047 82.3969 141.651 81.217C142.26 80.0304 143.125 79.1057 144.246 78.4428C145.366 77.7733 146.698 77.4386 148.243 77.4386C149.575 77.4386 150.742 77.6805 151.743 78.1644C152.744 78.6483 153.536 79.3278 154.119 80.2028C154.703 81.0778 155.024 82.1052 155.084 83.2852H151.087C150.974 82.5228 150.676 81.9097 150.192 81.4457C149.714 80.975 149.088 80.7397 148.312 80.7397C147.656 80.7397 147.083 80.9187 146.592 81.2766C146.108 81.628 145.731 82.1417 145.459 82.8178C145.187 83.494 145.051 84.3126 145.051 85.2738C145.051 86.2482 145.184 87.0768 145.449 87.7596C145.721 88.4424 146.102 88.9627 146.592 89.3207C147.083 89.6786 147.656 89.8576 148.312 89.8576C148.796 89.8576 149.231 89.7582 149.615 89.5593C150.006 89.3604 150.328 89.0721 150.58 88.6942C150.838 88.3098 151.007 87.8491 151.087 87.3121H155.084C155.018 88.4788 154.699 89.5063 154.129 90.3945C153.566 91.2762 152.787 91.9656 151.793 92.4627C150.798 92.9599 149.622 93.2085 148.263 93.2085ZM164.756 93.2085C163.185 93.2085 161.833 92.8903 160.699 92.2539C159.572 91.6109 158.704 90.7028 158.094 89.5295C157.484 88.3495 157.179 86.9542 157.179 85.3434C157.179 83.7724 157.484 82.3936 158.094 81.207C158.704 80.0205 159.562 79.0958 160.669 78.4329C161.783 77.77 163.089 77.4386 164.587 77.4386C165.595 77.4386 166.533 77.601 167.401 77.9258C168.276 78.244 169.038 78.7245 169.688 79.3675C170.344 80.0105 170.855 80.8192 171.219 81.7937C171.584 82.7615 171.766 83.895 171.766 85.1942V86.3576H158.87V83.7326H167.779C167.779 83.1228 167.646 82.5825 167.381 82.1119C167.116 81.6412 166.748 81.2733 166.277 81.0082C165.813 80.7364 165.273 80.6005 164.657 80.6005C164.014 80.6005 163.444 80.7496 162.946 81.0479C162.456 81.3396 162.071 81.734 161.793 82.2312C161.515 82.7217 161.372 83.2686 161.365 83.8718V86.3675C161.365 87.1232 161.505 87.7762 161.783 88.3263C162.068 88.8765 162.469 89.3008 162.986 89.5991C163.503 89.8974 164.116 90.0465 164.826 90.0465C165.296 90.0465 165.727 89.9802 166.118 89.8477C166.509 89.7151 166.844 89.5162 167.123 89.2511C167.401 88.9859 167.613 88.6611 167.759 88.2766L171.676 88.5352C171.478 89.4764 171.07 90.2984 170.453 91.0011C169.844 91.6971 169.055 92.2406 168.087 92.6317C167.126 93.0162 166.016 93.2085 164.756 93.2085Z" fill="#B8B8B8"/>
<path d="M162.239 6.2373C160.614 6.2373 159 4.81865 159 3.11842C159 1.4182 160.614 -0.000460242 162.239 -0.000460242C164.176 -0.000460242 165.478 1.4182 165.478 3.11842C165.478 4.81865 164.176 6.2373 162.239 6.2373ZM162.239 0.432717C160.614 0.432717 159.646 1.69976 159.646 3.11842C159.646 4.53708 160.614 5.81496 162.239 5.81496C163.853 5.81496 164.821 4.53708 164.821 3.11842C164.821 1.69976 163.853 0.432717 162.239 0.432717Z" fill="#B8B8B8"/>
<path d="M162.906 4.8291L162.26 3.41045H161.615V4.8291H161.125V1.42866H162.583C162.906 1.42866 163.551 1.86184 163.551 2.42497C163.551 2.9881 163.229 3.26966 162.906 3.41045L163.551 4.8291H162.906ZM162.26 1.86184H161.615V2.9881H162.26C162.906 2.9881 162.906 2.84731 162.906 2.42497C162.906 2.13257 162.906 1.86184 162.26 1.86184Z" fill="#B8B8B8"/>
</svg>
