<svg width="195" height="100" viewBox="0 0 195 100" fill="none" xmlns="http://www.w3.org/2000/svg">
<path fill-rule="evenodd" clip-rule="evenodd" d="M32.7249 61.2163C31.1765 61.2163 29.9641 62.2811 29.9641 63.8348C29.9641 65.3896 31.1827 66.4482 32.7249 66.4482C34.266 66.4482 35.4856 65.3824 35.4856 63.8348C35.4856 62.2811 34.2723 61.2163 32.7249 61.2163ZM32.7249 65.6995C31.6208 65.6995 30.8018 64.9068 30.8018 63.8348C30.8018 62.7639 31.6145 61.965 32.7249 61.965C33.8217 61.965 34.6469 62.7761 34.6469 63.8348C34.6469 64.8873 33.8144 65.6995 32.7249 65.6995ZM59.5881 52.0575H46.1487L47.6763 29.0962L38.9487 52.0575H26.4688L46.2705 0.158203H59.5496L58.0168 23.4346L66.9098 0.158203H79.3909L59.5881 52.0575ZM61.2094 52.0575L81.01 0.158203H93.4901L73.6894 52.0575H61.2094Z" fill="#B8B8B8"/>
<path fill-rule="evenodd" clip-rule="evenodd" d="M25.0301 34.1686C7.5906 54.2997 -8.86035 81.0856 5.67068 93.4204C19.7511 105.374 37.3509 98.2964 49.3512 93.5779C61.3515 88.8594 193.99 32.2415 193.99 32.2415C195.27 31.6125 195.031 30.8259 193.43 31.2187C192.785 31.3772 49.0317 69.6714 49.0317 69.6714C30.7899 74.7049 9.99024 63.7347 25.0301 34.1686V34.1686Z" fill="#B8B8B8"/>
<g filter="url(#filter0_d_412_43)">
<path fill-rule="evenodd" clip-rule="evenodd" d="M33.1952 64.0194C33.5823 64.001 33.8851 63.8046 33.8851 63.2778C33.8851 62.5986 33.4335 62.4278 32.679 62.4278H31.5947V65.2438H32.3179V64.0449H32.4397L33.0984 65.2438H33.9298L33.1952 64.0194ZM32.7311 63.5632H32.319V62.9096H32.6666C32.8799 62.9096 33.1244 62.9341 33.1244 63.2072C33.1244 63.4998 32.9829 63.5632 32.7311 63.5632ZM158.178 0C156.63 0 155.418 1.06583 155.418 2.61854C155.418 4.17228 156.637 5.23095 158.178 5.23095C159.72 5.23095 160.939 4.16512 160.939 2.61854C160.94 1.06583 159.728 0 158.178 0ZM158.178 4.48426C157.074 4.48426 156.255 3.69154 156.255 2.61957C156.255 1.54863 157.068 0.749761 158.178 0.749761C159.275 0.749761 160.101 1.5609 160.101 2.61957C160.101 3.6721 159.269 4.48426 158.178 4.48426Z" fill="#B8B8B8"/>
</g>
<path fill-rule="evenodd" clip-rule="evenodd" d="M158.65 2.80232C159.037 2.78391 159.341 2.58752 159.341 2.06074C159.341 1.38156 158.888 1.21074 158.135 1.21074H157.051V4.02568H157.773V2.8279H157.896L158.553 4.02568H159.386L158.65 2.80232ZM158.185 2.34612H157.773V1.69251H158.122C158.334 1.69251 158.579 1.71808 158.579 1.99119C158.579 2.28271 158.437 2.34612 158.185 2.34612V2.34612ZM149.956 8.80862L153.31 0.158203H115.23L102.154 15.7283L108.191 0.158203H95.5507L75.9082 52.0577H88.3882L96.7745 30.3544L97.3489 52.0577L135.642 51.9758L139.288 41.9926H124.728L129.512 29.4113H141.511L145.203 19.739H133.204L137.318 8.80862H149.956V8.80862ZM109.73 48.5973L108.93 21.5475L127.799 1.18312L109.73 48.5973V48.5973Z" fill="#B8B8B8"/>
<defs>
<filter id="filter0_d_412_43" x="31.5947" y="0" width="153.345" height="89.2441" filterUnits="userSpaceOnUse" color-interpolation-filters="sRGB">
<feFlood flood-opacity="0" result="BackgroundImageFix"/>
<feColorMatrix in="SourceAlpha" type="matrix" values="0 0 0 0 0 0 0 0 0 0 0 0 0 0 0 0 0 0 127 0" result="hardAlpha"/>
<feOffset dx="20" dy="20"/>
<feGaussianBlur stdDeviation="2"/>
<feColorMatrix type="matrix" values="0 0 0 0 0 0 0 0 0 0 0 0 0 0 0 0 0 0 0.25 0"/>
<feBlend mode="normal" in2="BackgroundImageFix" result="effect1_dropShadow_412_43"/>
<feBlend mode="normal" in="SourceGraphic" in2="effect1_dropShadow_412_43" result="shape"/>
</filter>
</defs>
</svg>
