<svg width="200" height="101" viewBox="0 0 200 101" fill="none" xmlns="http://www.w3.org/2000/svg">
<path fill-rule="evenodd" clip-rule="evenodd" d="M106.641 0.303296C105.956 0.415503 105.328 2.82795 104.073 4.06222C103.16 4.95988 101.962 4.90377 101.334 6.02584C101.106 6.41856 101.163 7.14791 100.935 7.82115C100.421 9.16763 98.5954 9.27984 98.5954 10.7946C98.5954 12.4216 100.136 12.7021 101.448 13.8242C102.475 14.7219 102.589 15.3951 103.845 15.8439C104.929 16.1806 106.526 15.0024 107.953 15.4512C109.151 15.7878 110.292 16.0683 110.521 17.2465C110.749 18.3686 110.521 20.0517 109.094 19.8834C108.638 19.8273 106.526 19.154 103.902 19.3784C100.821 19.7151 97.226 20.7249 96.8837 24.1472C96.7125 26.0547 99.1089 28.2989 101.391 27.8501C102.989 27.5134 102.247 25.662 103.103 24.7644C104.244 23.5862 110.749 28.8038 116.74 28.8038C119.25 28.8038 121.19 28.1867 123.016 26.2231C123.187 26.0547 123.416 25.7742 123.701 25.7181C123.929 25.7181 124.386 25.9986 124.557 26.1108C129.407 29.9259 133.059 37.6681 150.918 37.7243C153.428 37.7243 156.281 38.9024 158.621 41.0343C160.675 42.9419 161.93 45.8592 163.128 48.8327C164.897 53.321 168.092 57.697 172.942 62.5219C173.228 62.8025 177.222 65.832 177.507 66.0565C177.564 66.1126 177.849 66.7858 177.735 67.1785C177.621 70.0959 177.165 78.5675 183.612 78.9041C185.153 78.9602 184.753 77.8943 184.753 77.1649C184.753 75.7062 184.468 74.2475 185.267 72.7327C186.351 70.6569 182.984 69.7032 183.099 65.2149C183.156 61.8487 180.303 62.4658 178.876 59.8851C178.02 58.4264 177.279 57.6409 177.336 55.8456C177.678 45.6909 175.11 39.0146 173.855 37.3876C172.885 36.1534 172.086 35.6484 172.942 35.0874C178.306 31.609 179.504 28.355 179.504 28.355C182.357 21.7909 184.924 15.7878 188.462 13.151C189.147 12.5899 190.973 11.2435 192.114 10.7385C195.423 9.22373 197.135 8.26998 198.105 7.37232C199.588 5.91363 200.787 2.88405 199.36 1.08874C197.534 -1.15539 194.453 0.639917 193.084 1.42536C183.27 7.14791 181.786 17.3026 178.363 23.0813C175.624 27.7378 171.23 31.1601 167.293 31.4407C164.326 31.6651 161.131 31.0479 157.936 29.7015C150.176 26.3914 145.954 22.0714 144.984 21.286C142.93 19.7151 126.839 4.11833 113.716 3.50119C113.716 3.50119 112.118 0.303296 111.662 0.247193C110.692 0.134986 109.722 2.15471 109.037 2.37912C108.409 2.60353 107.325 0.19109 106.641 0.303296Z" fill="#B8B8B8"/>
<path fill-rule="evenodd" clip-rule="evenodd" d="M0 51.5625H23.6875C27.0012 51.5625 29.6875 54.2488 29.6875 57.5625V81.5C29.6875 84.8137 27.0012 87.5 23.6875 87.5H11.3281V99.6094H0V51.5625ZM11.3281 82.0312V57.0312H14.4531C16.0156 57.0312 16.4062 58.9844 16.4062 58.9844V80.0781C16.0156 82.0312 14.4531 82.0312 14.4531 82.0312H11.3281Z" fill="#B8B8B8"/>
<path d="M34.375 51.5625V97.6562C34.6354 98.4375 35.4687 100 36.7188 100H62.5C63.2812 99.7396 64.8438 98.9063 64.8438 97.6562V51.5625H51.9531V92.1875C51.8229 92.8385 51.4063 94.1406 50.7812 94.1406H48.4375C48.0469 93.75 47.2656 92.8125 47.2656 92.1875V51.5625H34.375Z" fill="#B8B8B8"/>
<path d="M70.3125 57.5625C70.3125 54.2488 72.9988 51.5625 76.3125 51.5625H112.846C116.122 51.5625 118.792 54.1902 118.845 57.4657L119.531 100H105.469V60.2031C105.469 59.0986 104.573 58.2031 103.469 58.2031H103.172C102.067 58.2031 101.172 59.0986 101.172 60.2031V100H87.5V60.2031C87.5 59.0986 86.6046 58.2031 85.5 58.2031H85.2031C84.0986 58.2031 83.2031 59.0986 83.2031 60.2031V100H70.3125V57.5625Z" fill="#B8B8B8"/>
<path fill-rule="evenodd" clip-rule="evenodd" d="M123.828 100H136.719V87.5H141.406V100H154.688V57.5625C154.688 54.2488 152.001 51.5625 148.687 51.5625H129.828C126.514 51.5625 123.828 54.2488 123.828 57.5625V100ZM141.406 82.0312H136.719V60.2031C136.719 59.0986 137.614 58.2031 138.719 58.2031H139.406C140.511 58.2031 141.406 59.0986 141.406 60.2031V82.0312Z" fill="#B8B8B8"/>
<path d="M160.239 100.237C158.614 100.237 157 98.8186 157 97.1184C157 95.4182 158.614 93.9995 160.239 93.9995C162.176 93.9995 163.478 95.4182 163.478 97.1184C163.478 98.8186 162.176 100.237 160.239 100.237ZM160.239 94.4327C158.614 94.4327 157.646 95.6998 157.646 97.1184C157.646 98.5371 158.614 99.815 160.239 99.815C161.853 99.815 162.821 98.5371 162.821 97.1184C162.821 95.6998 161.853 94.4327 160.239 94.4327Z" fill="#B8B8B8"/>
<path d="M160.906 98.8291L160.26 97.4104H159.615V98.8291H159.125V95.4287H160.583C160.906 95.4287 161.551 95.8618 161.551 96.425C161.551 96.9881 161.229 97.2697 160.906 97.4104L161.551 98.8291H160.906ZM160.26 95.8618H159.615V96.9881H160.26C160.906 96.9881 160.906 96.8473 160.906 96.425C160.906 96.1326 160.906 95.8618 160.26 95.8618Z" fill="#B8B8B8"/>
</svg>
