<svg width="25" height="25" viewBox="0 0 25 25" fill="none" xmlns="http://www.w3.org/2000/svg">
<g id="Vector">
<path d="M7.49463 4.16571V5.83119H23.3166V9.12804L21.469 14.9913H6.97063L4.88879 0H0V1.66547H3.43858L5.52042 16.6568H22.6904L24.9821 9.38421V4.16571H7.49463ZM8.37858 18.3381C7.49546 18.3391 6.64881 18.6904 6.02436 19.3148C5.3999 19.9393 5.04864 20.7859 5.04763 21.6691C5.04763 22.5525 5.39857 23.3997 6.02324 24.0244C6.64792 24.6491 7.49516 25 8.37858 25C9.262 25 10.1092 24.6491 10.7339 24.0244C11.3586 23.3997 11.7095 22.5525 11.7095 21.6691C11.7085 20.7859 11.3573 19.9393 10.7328 19.3148C10.1084 18.6904 9.2617 18.3391 8.37858 18.3381ZM8.37858 23.3345C8.04918 23.3345 7.72718 23.2368 7.45329 23.0538C7.17941 22.8708 6.96594 22.6107 6.83988 22.3064C6.71383 22.0021 6.68085 21.6672 6.74511 21.3441C6.80937 21.0211 6.96799 20.7243 7.20091 20.4914C7.43383 20.2585 7.73059 20.0998 8.05366 20.0356C8.37673 19.9713 8.7116 20.0043 9.01593 20.1304C9.32025 20.2564 9.58037 20.4699 9.76337 20.7438C9.94637 21.0177 10.0441 21.3397 10.0441 21.6691C10.0435 22.1106 9.86789 22.5339 9.55567 22.8461C9.24344 23.1584 8.82013 23.334 8.37858 23.3345ZM20.0369 18.3381C19.1538 18.3391 18.3071 18.6904 17.6827 19.3148C17.0582 19.9393 16.707 20.7859 16.7059 21.6691C16.7059 22.5525 17.0569 23.3997 17.6816 24.0244C18.3062 24.6491 19.1535 25 20.0369 25C20.9203 25 21.7676 24.6491 22.3922 24.0244C23.0169 23.3997 23.3678 22.5525 23.3678 21.6691C23.3668 20.7859 23.0156 19.9393 22.3911 19.3148C21.7667 18.6904 20.92 18.3391 20.0369 18.3381ZM20.0369 23.3345C19.7075 23.3345 19.3855 23.2368 19.1116 23.0538C18.8377 22.8708 18.6243 22.6107 18.4982 22.3064C18.3721 22.0021 18.3392 21.6672 18.4034 21.3441C18.4677 21.0211 18.6263 20.7243 18.8592 20.4914C19.0921 20.2585 19.3889 20.0998 19.712 20.0356C20.035 19.9713 20.3699 20.0043 20.6742 20.1304C20.9786 20.2564 21.2387 20.4699 21.4217 20.7438C21.6047 21.0177 21.7024 21.3397 21.7024 21.6691C21.7018 22.1106 21.5262 22.5339 21.214 22.8461C20.9018 23.1584 20.4784 23.334 20.0369 23.3345Z" fill="#111111"/>
<path d="M14 8H15V10.128H17V11H15V13H14V11H12V10.128H14V8Z" fill="#111111"/>
</g>
</svg>
