<svg width="25" height="25" viewBox="0 0 25 25" fill="none" xmlns="http://www.w3.org/2000/svg">
<path d="M21.875 12.4998C21.8781 14.361 21.3245 16.1806 20.2854 17.7248C19.4285 19.0029 18.2699 20.0501 16.912 20.7739C15.5541 21.4977 14.0388 21.8758 12.5 21.8748C10.9612 21.8758 9.44592 21.4977 8.08803 20.7739C6.73014 20.0501 5.57151 19.0029 4.71458 17.7248C3.89868 16.5085 3.37907 15.1181 3.1974 13.6648C3.01574 12.2116 3.17708 10.736 3.66849 9.35633C4.1599 7.97667 4.9677 6.73133 6.02715 5.72015C7.0866 4.70896 8.36823 3.96006 9.76928 3.53347C11.1703 3.10687 12.6518 3.01446 14.095 3.26364C15.5383 3.51282 16.903 4.09665 18.0799 4.96834C19.2568 5.84003 20.2131 6.97533 20.8722 8.28322C21.5312 9.59111 21.8747 11.0352 21.875 12.4998Z" stroke="#111111" stroke-width="2"/>
<path d="M14.0622 9.37467C14.0622 9.78908 13.8976 10.1865 13.6046 10.4795C13.3116 10.7726 12.9141 10.9372 12.4997 10.9372V11.9788C12.8417 11.9788 13.1804 11.9115 13.4963 11.7806C13.8123 11.6497 14.0993 11.4579 14.3412 11.2161C14.583 10.9743 14.7748 10.6872 14.9057 10.3712C15.0365 10.0553 15.1039 9.71666 15.1039 9.37467H14.0622ZM12.4997 10.9372C12.0853 10.9372 11.6879 10.7726 11.3949 10.4795C11.1019 10.1865 10.9372 9.78908 10.9372 9.37467H9.89557C9.89557 9.71666 9.96293 10.0553 10.0938 10.3712C10.2247 10.6872 10.4165 10.9743 10.6583 11.2161C11.1467 11.7045 11.8091 11.9788 12.4997 11.9788V10.9372ZM10.9372 9.37467C10.9372 8.96027 11.1019 8.56285 11.3949 8.26982C11.6879 7.97679 12.0853 7.81217 12.4997 7.81217V6.77051C11.8091 6.77051 11.1467 7.04487 10.6583 7.53325C10.1699 8.02163 9.89557 8.68401 9.89557 9.37467H10.9372ZM12.4997 7.81217C12.9141 7.81217 13.3116 7.97679 13.6046 8.26982C13.8976 8.56285 14.0622 8.96027 14.0622 9.37467H15.1039C15.1039 8.68401 14.8295 8.02163 14.3412 7.53325C13.8528 7.04487 13.1904 6.77051 12.4997 6.77051V7.81217ZM5.38099 18.5997L4.88099 18.4518L4.80078 18.7236L4.98516 18.9393L5.38099 18.5997ZM19.6185 18.5997L20.0143 18.9393L20.1987 18.7236L20.1174 18.4518L19.6185 18.5997ZM9.37474 16.1455H15.6247V15.1038H9.37474V16.1455ZM9.37474 15.1038C8.3653 15.104 7.38286 15.4299 6.57344 16.0331C5.76402 16.6363 5.16979 17.4845 4.88099 18.4518L5.87995 18.7486C6.1048 17.9964 6.56632 17.3369 7.19593 16.8679C7.82555 16.3989 8.58966 16.1456 9.37474 16.1455V15.1038ZM12.4997 21.3538C11.2219 21.3552 9.95897 21.0793 8.7981 20.5452C7.63724 20.0111 6.60608 19.2314 5.77578 18.2601L4.98516 18.9393C5.91333 20.0244 7.06582 20.8954 8.36314 21.4921C9.66047 22.0888 11.0718 22.397 12.4997 22.3955V21.3538ZM15.6247 16.1455C16.41 16.1456 17.1742 16.3991 17.8038 16.8683C18.4334 17.3375 18.8949 17.9973 19.1195 18.7497L20.1174 18.4518C19.8287 17.4845 19.2355 16.6363 18.426 16.0331C17.6166 15.4299 16.6342 15.104 15.6247 15.1038V16.1455ZM19.2237 18.2601C18.3934 19.2314 17.3622 20.0111 16.2014 20.5452C15.0405 21.0793 13.7776 21.3552 12.4997 21.3538V22.3955C13.9277 22.397 15.339 22.0888 16.6363 21.4921C17.9337 20.8954 19.0861 20.0244 20.0143 18.9393L19.2237 18.2601Z" fill="#111111"/>
</svg>
