<svg width="25" height="25" viewBox="0 0 25 25" fill="none" xmlns="http://www.w3.org/2000/svg">
<path d="M14.7081 16.6886C13.6621 17.3149 12.4653 17.6447 11.2461 17.6426C10.3595 17.6438 9.4814 17.4698 8.66228 17.1305C7.84316 16.7912 7.09918 16.2934 6.4731 15.6656C5.84533 15.0395 5.3475 14.2955 5.00821 13.4764C4.66893 12.6573 4.49489 11.7792 4.4961 10.8926C4.4961 9.02858 5.2511 7.34158 6.4731 6.11958C7.09918 5.49182 7.84316 4.99398 8.66228 4.6547C9.4814 4.31541 10.3595 4.14138 11.2461 4.14258C13.1101 4.14258 14.7971 4.89758 16.0191 6.11958C16.6469 6.74566 17.1447 7.48964 17.484 8.30876C17.8233 9.12788 17.9973 10.006 17.9961 10.8926C17.9978 12.09 17.6799 13.2661 17.0751 14.2996C16.5581 15.1816 16.6411 16.2876 17.3641 17.0106L21.2171 20.8636" stroke="#111111" stroke-width="1.5"/>
</svg>
