<svg xmlns="http://www.w3.org/2000/svg" xmlns:xlink="http://www.w3.org/1999/xlink" width="60" zoomAndPan="magnify" viewBox="0 0 45 30.000001" height="40" preserveAspectRatio="xMidYMid meet" version="1.0"><defs><clipPath id="0102bf4fca"><path d="M 4.429688 17 L 19 17 L 19 24 L 4.429688 24 Z M 4.429688 17 " clip-rule="nonzero"/></clipPath><clipPath id="c22f5d9553"><path d="M 4.707031 13.316406 L 28.746094 13.316406 L 28.746094 25.472656 L 4.707031 25.472656 Z M 4.707031 13.316406 " clip-rule="nonzero"/></clipPath><clipPath id="99c3503904"><path d="M 26 13 L 40.722656 13 L 40.722656 18 L 26 18 Z M 26 13 " clip-rule="nonzero"/></clipPath><clipPath id="7ccd1ac320"><path d="M 27.246094 3.695312 L 40.71875 3.695312 L 40.71875 6.503906 L 27.246094 6.503906 Z M 27.246094 3.695312 " clip-rule="nonzero"/></clipPath></defs><path fill="#ff6452" d="M 24.984375 14.898438 C 25.472656 15.375 25.640625 15.957031 25.679688 16.125 C 25.964844 15.9375 26.226562 15.746094 26.464844 15.546875 C 26.425781 14.964844 25.976562 14.292969 25.976562 14.292969 C 26.375 14.679688 26.5625 15.144531 26.636719 15.390625 C 26.867188 15.179688 27.066406 14.960938 27.234375 14.722656 C 27.164062 14.164062 26.753906 13.550781 26.753906 13.550781 C 27.09375 13.878906 27.277344 14.257812 27.371094 14.519531 C 27.636719 14.089844 27.804688 13.617188 27.859375 13.070312 C 27.859375 13.070312 27.761719 11.863281 27.460938 11.40625 C 27.460938 11.40625 27.648438 12.285156 26.035156 13.152344 C 24.421875 14.019531 20.03125 17.441406 19.460938 18.71875 C 19.460938 18.71875 19.691406 19.257812 20.011719 19.648438 C 20.011719 19.648438 20.132812 19.539062 20.355469 19.355469 C 20.300781 19.167969 20.199219 18.914062 19.996094 18.589844 C 19.996094 18.589844 20.324219 18.921875 20.507812 19.234375 C 20.707031 19.074219 20.96875 18.878906 21.273438 18.660156 C 21.15625 18.15625 20.824219 17.660156 20.824219 17.660156 C 21.136719 17.960938 21.316406 18.304688 21.417969 18.5625 C 21.671875 18.386719 21.953125 18.199219 22.257812 18.007812 C 22.152344 17.480469 21.796875 16.945312 21.796875 16.945312 C 22.136719 17.273438 22.320312 17.65625 22.414062 17.914062 C 22.691406 17.746094 22.988281 17.578125 23.296875 17.410156 C 23.253906 16.832031 22.808594 16.164062 22.808594 16.164062 C 23.238281 16.582031 23.421875 17.085938 23.484375 17.3125 C 23.597656 17.257812 23.707031 17.199219 23.824219 17.144531 C 24.023438 17.046875 24.21875 16.949219 24.40625 16.855469 C 24.410156 16.257812 23.914062 15.511719 23.914062 15.511719 C 24.410156 15.992188 24.578125 16.589844 24.613281 16.746094 C 24.917969 16.585938 25.203125 16.421875 25.476562 16.253906 C 25.488281 15.65625 24.984375 14.898438 24.984375 14.898438 " fill-opacity="1" fill-rule="nonzero"/><g clip-path="url(#0102bf4fca)"><path fill="#ff6452" d="M 18.621094 19.320312 C 18.039062 18.792969 17.433594 18.402344 16.832031 18.121094 C 16.210938 18.894531 14.667969 20.464844 11.84375 21.386719 C 11.84375 21.386719 14.972656 19.964844 16.445312 17.957031 C 13.40625 16.761719 10.511719 18.160156 10.511719 18.160156 C 10.238281 18.992188 9.054688 20.023438 9.054688 20.023438 C 4.4375 20.976562 4.976562 23.234375 4.976562 23.234375 C 4.976562 23.234375 6.390625 22.261719 7.207031 23.136719 C 8.023438 24.015625 9.957031 23.535156 9.957031 23.535156 C 18.066406 22.28125 18.621094 19.320312 18.621094 19.320312 " fill-opacity="1" fill-rule="nonzero"/></g><path fill="#ff6452" d="M 25.226562 6.625 C 25.167969 6.515625 25.085938 6.398438 24.984375 6.277344 C 25.480469 10.398438 22.597656 9.75 22.597656 9.75 C 25.09375 9.949219 24.898438 7.136719 24.722656 6.011719 C 24.257812 5.59375 23.585938 5.25 22.90625 5.386719 C 22.90625 5.386719 22.914062 6.269531 23.664062 7.203125 C 24.414062 8.136719 23.734375 9.257812 23.21875 9.394531 C 22.707031 9.53125 21.773438 9.277344 21.089844 8.9375 C 20.402344 8.601562 19.15625 8.109375 18.601562 9.96875 C 18.601562 9.96875 19.082031 9.871094 19.996094 10.195312 C 20.910156 10.523438 22.808594 10.914062 23.398438 10.949219 C 23.992188 10.984375 24.773438 10.695312 25.082031 10.101562 C 25.394531 9.511719 25.917969 8.042969 25.917969 8.042969 C 25.917969 8.042969 25.542969 7.214844 25.226562 6.625 " fill-opacity="1" fill-rule="nonzero"/><path fill="#ff6452" d="M 22.675781 5.394531 C 22.675781 5.394531 22.738281 6.355469 23.335938 7.121094 C 23.9375 7.886719 23.976562 8.5 23.421875 9.027344 C 22.863281 9.554688 21.714844 8.863281 20.25 8.386719 C 20.25 8.386719 19.972656 8.011719 19.644531 7.847656 C 19.644531 7.847656 20.175781 6.785156 20.449219 6.40625 C 20.71875 6.03125 20.914062 6.007812 21.152344 5.882812 C 21.394531 5.761719 22.449219 5.332031 22.675781 5.394531 " fill-opacity="1" fill-rule="nonzero"/><path fill="#ff6452" d="M 10.808594 16.960938 C 10.746094 16.859375 10.78125 16.726562 10.882812 16.664062 C 12.429688 15.722656 14.582031 16.066406 14.605469 16.0625 C 14.722656 16.082031 14.804688 16.191406 14.785156 16.3125 C 14.769531 16.429688 14.65625 16.511719 14.539062 16.496094 C 14.539062 16.496094 14.511719 16.492188 14.453125 16.484375 C 14.394531 16.476562 14.308594 16.46875 14.199219 16.460938 C 13.984375 16.445312 13.679688 16.433594 13.335938 16.449219 C 12.640625 16.480469 11.78125 16.621094 11.109375 17.035156 C 11.054688 17.066406 10.996094 17.074219 10.9375 17.058594 C 10.886719 17.046875 10.839844 17.011719 10.808594 16.960938 " fill-opacity="1" fill-rule="nonzero"/><path fill="#ff6452" d="M 11.648438 15.21875 C 11.59375 15.113281 11.632812 14.980469 11.742188 14.925781 C 13.503906 14.019531 15.777344 14.46875 15.796875 14.464844 C 15.914062 14.488281 15.992188 14.601562 15.972656 14.722656 C 15.949219 14.839844 15.835938 14.917969 15.71875 14.894531 C 15.714844 14.894531 15.6875 14.890625 15.625 14.878906 C 15.5625 14.871094 15.46875 14.859375 15.355469 14.84375 C 15.125 14.820312 14.796875 14.792969 14.421875 14.792969 C 13.671875 14.792969 12.722656 14.90625 11.941406 15.3125 C 11.890625 15.339844 11.835938 15.34375 11.785156 15.332031 C 11.726562 15.316406 11.675781 15.277344 11.648438 15.21875 " fill-opacity="1" fill-rule="nonzero"/><path fill="#ff6452" d="M 12.484375 13.523438 C 12.429688 13.417969 12.472656 13.285156 12.578125 13.230469 C 14.300781 12.351562 15.992188 12.707031 16.507812 12.847656 C 16.609375 12.875 16.667969 12.894531 16.671875 12.894531 C 16.785156 12.933594 16.84375 13.058594 16.804688 13.175781 C 16.765625 13.289062 16.640625 13.347656 16.527344 13.308594 C 16.527344 13.308594 16.519531 13.304688 16.496094 13.296875 C 16.472656 13.289062 16.441406 13.28125 16.394531 13.269531 C 15.929688 13.140625 14.34375 12.8125 12.777344 13.621094 C 12.726562 13.644531 12.671875 13.648438 12.621094 13.636719 C 12.5625 13.621094 12.511719 13.582031 12.484375 13.523438 " fill-opacity="1" fill-rule="nonzero"/><path fill="#ff6452" d="M 13.171875 11.679688 C 13.117188 11.570312 13.160156 11.4375 13.269531 11.382812 C 14.683594 10.667969 16.242188 10.945312 17.03125 11.160156 C 17.355469 11.246094 17.550781 11.328125 17.558594 11.332031 C 17.671875 11.375 17.722656 11.503906 17.679688 11.613281 C 17.632812 11.726562 17.507812 11.78125 17.394531 11.734375 C 17.394531 11.734375 17.355469 11.71875 17.273438 11.691406 C 17.191406 11.660156 17.066406 11.621094 16.917969 11.578125 C 16.175781 11.375 14.710938 11.132812 13.464844 11.773438 C 13.414062 11.800781 13.359375 11.804688 13.308594 11.789062 C 13.253906 11.773438 13.203125 11.734375 13.171875 11.679688 " fill-opacity="1" fill-rule="nonzero"/><path fill="#ff6452" d="M 13.03125 16.617188 C 11.898438 16.722656 11.277344 17.039062 11.023438 17.203125 C 10.851562 17.558594 10.746094 17.761719 10.746094 17.761719 C 12 17.160156 13.390625 17.164062 13.390625 17.164062 C 13.132812 16.925781 13.035156 16.753906 13.03125 16.617188 " fill-opacity="1" fill-rule="nonzero"/><path fill="#ff6452" d="M 11.476562 16.261719 C 12.253906 15.957031 13.035156 15.878906 13.621094 15.882812 C 13.625 15.878906 13.625 15.875 13.628906 15.871094 C 13.734375 15.738281 13.992188 15.382812 14.320312 14.910156 C 13.035156 14.933594 12.214844 15.257812 11.867188 15.433594 C 11.730469 15.730469 11.597656 16.007812 11.476562 16.261719 " fill-opacity="1" fill-rule="nonzero"/><path fill="#ff6452" d="M 12.253906 14.59375 C 13.101562 14.25 14.078125 14.210938 14.78125 14.246094 C 15.007812 13.917969 15.246094 13.5625 15.484375 13.214844 C 14.136719 13.09375 13.0625 13.5625 12.609375 13.808594 C 12.488281 14.078125 12.371094 14.339844 12.253906 14.59375 " fill-opacity="1" fill-rule="nonzero"/><path fill="#ff6452" d="M 25.355469 12.703125 C 24.054688 13.476562 21.957031 14.828125 20.992188 16.035156 C 20.992188 16.035156 21.890625 14.660156 23.921875 12.988281 C 25.957031 11.320312 26.121094 9.179688 26.121094 9.179688 C 26.121094 9.179688 26.847656 10.660156 26.929688 11.058594 C 26.929688 11.058594 26.65625 11.925781 25.355469 12.703125 Z M 18.960938 17.96875 C 17.652344 17.121094 16.628906 16.878906 16.113281 16.699219 C 15.597656 16.519531 16.222656 16.015625 16.222656 16.015625 C 17.039062 15.21875 19.21875 11.628906 19.59375 11.207031 C 19.972656 10.78125 20.179688 10.988281 20.179688 10.988281 C 21.160156 11.257812 23.125 11.640625 23.125 11.640625 C 23.125 11.640625 24.566406 11.582031 23.269531 12.773438 C 21.96875 13.964844 18.960938 17.96875 18.960938 17.96875 Z M 26.0625 8.335938 C 26.0625 8.335938 25.527344 9.949219 25.101562 10.585938 C 24.679688 11.222656 23.726562 11.214844 23.726562 11.214844 C 23.726562 11.214844 21.59375 11.136719 19.777344 10.441406 C 17.960938 9.742188 17.292969 10.917969 17.292969 10.917969 C 17.292969 10.917969 17.253906 10.980469 17.183594 11.089844 C 17.429688 11.160156 17.582031 11.222656 17.605469 11.242188 C 17.699219 11.316406 17.878906 11.441406 17.765625 11.660156 C 17.65625 11.882812 17.367188 11.84375 17.367188 11.84375 C 17.175781 11.773438 16.988281 11.71875 16.808594 11.675781 C 16.628906 11.949219 16.414062 12.28125 16.175781 12.644531 C 16.554688 12.71875 16.765625 12.808594 16.765625 12.808594 C 16.765625 12.808594 17.035156 13.019531 16.878906 13.277344 C 16.71875 13.535156 16.480469 13.40625 16.480469 13.40625 C 16.238281 13.335938 16.003906 13.285156 15.777344 13.25 C 15.550781 13.585938 15.320312 13.933594 15.089844 14.265625 C 15.476562 14.296875 15.722656 14.34375 15.722656 14.34375 C 15.722656 14.34375 16.117188 14.363281 16.074219 14.71875 C 16.027344 15.070312 15.636719 14.988281 15.636719 14.988281 C 15.28125 14.941406 14.949219 14.917969 14.644531 14.910156 C 14.371094 15.296875 14.121094 15.636719 13.917969 15.890625 C 14.339844 15.910156 14.605469 15.960938 14.605469 15.960938 C 14.605469 15.960938 14.972656 16 14.933594 16.328125 C 14.894531 16.65625 14.472656 16.605469 14.472656 16.605469 C 14.046875 16.578125 13.664062 16.574219 13.324219 16.59375 C 13.300781 16.917969 13.9375 17.1875 13.9375 17.1875 C 16.90625 17.140625 18.769531 18.957031 18.769531 18.957031 C 19.886719 17.050781 23.644531 14.105469 25.675781 12.902344 C 27.042969 12.09375 27.34375 11.195312 27.34375 11.195312 C 27.164062 10.195312 26.0625 8.335938 26.0625 8.335938 " fill-opacity="1" fill-rule="nonzero"/><path fill="#ff6452" d="M 13.003906 12.902344 C 14.210938 12.484375 15.226562 12.5 15.898438 12.59375 C 16.136719 12.238281 16.359375 11.902344 16.546875 11.613281 C 14.886719 11.261719 13.800781 11.71875 13.417969 11.929688 C 13.28125 12.257812 13.144531 12.582031 13.003906 12.902344 Z M 19.964844 8.328125 C 19.195312 7.554688 17.5625 7.335938 17.5625 7.335938 C 17.5625 7.335938 16.628906 7.457031 15.660156 7.570312 C 14.6875 7.679688 14.800781 8.089844 14.800781 8.089844 C 14.550781 8.980469 14.183594 10.007812 13.769531 11.050781 C 14.847656 10.644531 16.144531 10.828125 16.921875 11.019531 C 16.960938 10.953125 16.996094 10.894531 17.023438 10.84375 C 17.527344 9.964844 18.335938 10.03125 18.335938 10.03125 C 18.632812 8.382812 19.964844 8.328125 19.964844 8.328125 " fill-opacity="1" fill-rule="nonzero"/><path fill="#ff6452" d="M 19.082031 17.3125 C 19.082031 17.3125 18.171875 15.261719 19.464844 13.773438 C 20.753906 12.289062 19.492188 11.292969 19.492188 11.292969 C 19.492188 11.292969 20.648438 11.996094 20.324219 13.082031 C 19.996094 14.167969 18.617188 14.902344 19.082031 17.3125 " fill-opacity="1" fill-rule="nonzero"/><g clip-path="url(#c22f5d9553)"><path fill="#ff6452" d="M 28.035156 13.359375 C 28.035156 13.359375 28.484375 14.875 25.40625 16.671875 C 22.324219 18.46875 21.222656 18.921875 19.9375 20.191406 C 19.9375 20.191406 19.804688 20.046875 19.652344 19.847656 L 19.242188 19.1875 C 19.207031 19.109375 19.183594 19.035156 19.179688 18.96875 L 18.902344 19.65625 C 17.386719 22.59375 12.132812 23.484375 12.132812 23.484375 L 12.117188 23.488281 C 11.671875 23.589844 10.460938 23.859375 9.21875 24.039062 C 7.652344 24.265625 7.726562 23.632812 6.371094 23.261719 C 5.019531 22.894531 4.707031 24.414062 4.707031 24.414062 C 8.8125 26.390625 13.296875 24.988281 13.296875 24.988281 L 12.949219 24.34375 C 13.332031 24.289062 13.691406 24.226562 14.03125 24.152344 L 14.464844 24.84375 L 16.136719 24.355469 L 15.667969 23.683594 C 15.917969 23.59375 16.152344 23.496094 16.375 23.398438 L 16.820312 24.054688 L 18.078125 23.304688 L 17.65625 22.6875 C 17.828125 22.570312 17.988281 22.453125 18.136719 22.335938 L 18.527344 22.898438 L 19.34375 22.117188 L 18.984375 21.523438 C 19.148438 21.335938 19.285156 21.152344 19.394531 20.988281 L 19.691406 21.519531 C 19.691406 21.519531 20.53125 20.355469 22.183594 19.675781 C 23.832031 18.996094 28.269531 16.925781 28.714844 15.277344 C 28.714844 15.277344 28.507812 13.828125 28.035156 13.359375 " fill-opacity="1" fill-rule="nonzero"/></g><path fill="#ff6452" d="M 16.820312 24.054688 L 37.152344 19.078125 L 17.894531 23.234375 Z M 16.820312 24.054688 " fill-opacity="1" fill-rule="nonzero"/><path fill="#ff6452" d="M 18.539062 22.84375 L 30.074219 20.007812 L 19.34375 22.117188 Z M 18.539062 22.84375 " fill-opacity="1" fill-rule="nonzero"/><g clip-path="url(#99c3503904)"><path fill="#ff6452" d="M 26.054688 17.605469 L 40.433594 13.882812 L 27.046875 16.738281 Z M 26.054688 17.605469 " fill-opacity="1" fill-rule="nonzero"/></g><path fill="#ff6452" d="M 28.386719 15.527344 L 36.460938 13.535156 L 28.429688 15.007812 Z M 28.386719 15.527344 " fill-opacity="1" fill-rule="nonzero"/><path fill="#ff6452" d="M 27.566406 12.152344 L 39.65625 9.640625 L 27.738281 12.671875 Z M 27.566406 12.152344 " fill-opacity="1" fill-rule="nonzero"/><path fill="#ff6452" d="M 23.765625 5.570312 L 33.265625 4.011719 L 24.457031 6.003906 Z M 23.765625 5.570312 " fill-opacity="1" fill-rule="nonzero"/><g clip-path="url(#7ccd1ac320)"><path fill="#ff6452" d="M 27.28125 6.492188 C 27.28125 6.492188 34.484375 4.585938 40.71875 3.695312 C 40.71875 3.695312 33.125 5.730469 27.28125 6.492188 " fill-opacity="1" fill-rule="nonzero"/></g><path fill="#ff6452" d="M 28.429688 10.765625 C 28.429688 10.765625 30.589844 9.898438 33.699219 9.640625 C 33.699219 9.640625 31.019531 10.417969 28.429688 10.765625 " fill-opacity="1" fill-rule="nonzero"/></svg>